<svg xmlns="http://www.w3.org/2000/svg" xmlns:xlink="http://www.w3.org/1999/xlink" width="157.49mm" height="47.07mm" viewBox="0 0 446.44 133.42"><defs><clipPath id="a"><rect x="-626.86" y="54.87" width="345.44" height="276.64" fill="none"/></clipPath><clipPath id="b"><path d="M18,132A42.61,42.61,0,0,1,31,138.59a42.62,42.62,0,0,1,8.77,8.92l.51.72a43.9,43.9,0,0,1,7.62-2.84l.16,0h0a34.45,34.45,0,0,0-27.19-21.4A34.27,34.27,0,0,0,18,132" fill="none"/></clipPath><clipPath id="c"><rect x="14.28" y="118.69" width="37.52" height="34.79" transform="translate(-54.97 27.15) rotate(-25.29)" fill="none"/></clipPath><linearGradient id="d" x1="-2665.89" y1="6554.69" x2="-2664.89" y2="6554.69" gradientTransform="matrix(0, 61, 61, 0, -399808.15, 162701.84)" gradientUnits="userSpaceOnUse"><stop offset="0" stop-color="#fbb043"/><stop offset="1" stop-color="#ec5655"/></linearGradient><clipPath id="f"><path d="M-6.84,133.05A41.61,41.61,0,0,0,9.91,166.69a41.14,41.14,0,0,0,4.81,3.12l.56.32.7.37c.54.28,1.08.55,1.63.8l.25.11A40.11,40.11,0,0,0,44.43,174c.66-.16,1.47-.36,2.12-.55l0,0V173a40.59,40.59,0,0,0-8-24.64,41.2,41.2,0,0,0-8.47-8.62,41.47,41.47,0,0,0-24.86-8.32,40.93,40.93,0,0,0-12.07,1.62" fill="none"/></clipPath><clipPath id="g"><rect x="-14.04" y="122.09" width="67.75" height="63.46" transform="translate(-63.81 23.21) rotate(-25.29)" fill="none"/></clipPath><linearGradient id="h" x1="-2665.89" y1="6554.67" x2="-2664.89" y2="6554.67" gradientTransform="matrix(0, 61, 61, 0, -399819.99, 162709.05)" xlink:href="#d"/><clipPath id="j"><path d="M-17.27,207.8S-4.75,207.88,3,198c1.66-2.11,5.24-6.56,9-11.18A14.77,14.77,0,0,1,20.54,182l.24,0h0a36.82,36.82,0,0,1-6.42-.73A44.75,44.75,0,0,1,5.6,178.5Z" fill="none"/></clipPath><clipPath id="k"><rect x="-22.28" y="169.83" width="48.06" height="46.72" transform="translate(-120.4 43.51) rotate(-38.7)" fill="none"/></clipPath><linearGradient id="l" x1="-2658.86" y1="6551.19" x2="-2657.86" y2="6551.19" gradientTransform="matrix(0, 57.22, 57.22, 0, -374875.58, 152290.55)" gradientUnits="userSpaceOnUse"><stop offset="0" stop-color="#f8ec22"/><stop offset="1" stop-color="#fbb043"/></linearGradient><clipPath id="n"><path d="M48.69,139.16a42.15,42.15,0,0,1,2.59,5.23,19.94,19.94,0,0,0-3.24.94h0a42.23,42.23,0,0,1,1.86,6.28c1.52,6.57.52,13.31-1.89,19.66,0,.32-.37.63-.37.95,4.58-3.55,7.43-6.08,13.86-9.09,17.12-8,31.94-5.84,31.94-5.84-3.28-2.93-9.9-3.58-12.61-4.24a2.26,2.26,0,0,1-.49-.19,10,10,0,0,0-5.39-7.35A61,61,0,0,0,56,139.6c-1.42-.22-3-.34-4.39-.52-.36,0-1.59-.2-3.12-.34Z" fill="none"/></clipPath><clipPath id="o"><rect x="42.18" y="128.09" width="56.69" height="54.78" transform="translate(-81.73 78.23) rotate(-38.7)" fill="none"/></clipPath><linearGradient id="p" x1="-2658.86" y1="6551.28" x2="-2657.86" y2="6551.28" gradientTransform="matrix(0, 57.22, 57.22, 0, -374811.47, 152239.5)" xlink:href="#l"/><clipPath id="q"><rect x="6.14" y="6.03" width="434.16" height="121.5" fill="none"/></clipPath><clipPath id="r"><path d="M54.59,27.05A37.42,37.42,0,0,1,73.74,40.78c.16.2.3.42.45.63a37.72,37.72,0,0,1,6.72-2.5l.15,0h0A31.12,31.12,0,0,0,79.75,36,30.45,30.45,0,0,0,57.09,20a30.8,30.8,0,0,0-2.5,7.08" fill="none"/></clipPath><linearGradient id="s" x1="-2665.63" y1="6559.31" x2="-2664.63" y2="6559.31" gradientTransform="matrix(0, 53.82, 53.82, 0, -352947.44, 143443.19)" xlink:href="#d"/><clipPath id="t"><path d="M32.65,28a37,37,0,0,0,19,32.43l.5.28.62.33c.47.24,1,.48,1.44.7l.21.1a35.46,35.46,0,0,0,23.45,2.26c.58-.15,1.3-.33,1.87-.5v0l0-.32a35.86,35.86,0,0,0-7.08-21.75A36.33,36.33,0,0,0,43.3,26.59,36.07,36.07,0,0,0,32.65,28" fill="none"/></clipPath><linearGradient id="u" x1="-2665.63" y1="6559.29" x2="-2664.63" y2="6559.29" gradientTransform="matrix(0, 53.82, 53.82, 0, -352957.75, 143449.88)" xlink:href="#d"/><clipPath id="v"><path d="M57,71.15h0m0,0h0M23.45,94s11.05.08,17.9-8.61c1.47-1.85,4.63-5.78,7.92-9.86a13.17,13.17,0,0,1,7.54-4.32l.2,0a32.93,32.93,0,0,1-5.66-.64,39.17,39.17,0,0,1-7.72-2.4Z" fill="none"/></clipPath><linearGradient id="w" x1="-2657.45" y1="6555.92" x2="-2656.45" y2="6555.92" gradientTransform="matrix(0, 50.49, 50.49, 0, -330940.35, 134200.19)" xlink:href="#l"/><clipPath id="x"><path d="M81.65,33.41A36.46,36.46,0,0,1,83.93,38a16.82,16.82,0,0,0-2.86.82h0A39,39,0,0,1,82.7,44.4C84,50.2,83.16,56.14,81,61.74c0,.29-.32.56-.32.85,4-3.13,6.55-5.37,12.23-8,15.1-7,28.18-5.16,28.18-5.16-2.9-2.58-8.74-3.15-11.13-3.74a1.82,1.82,0,0,1-.43-.16A8.83,8.83,0,0,0,104.8,39a53.66,53.66,0,0,0-16.71-5.23c-1.25-.19-2.61-.29-3.87-.45-.32,0-1.41-.18-2.76-.3Z" fill="none"/></clipPath><linearGradient id="y" x1="-2657.45" y1="6556.01" x2="-2656.45" y2="6556.01" gradientTransform="matrix(0, 50.49, 50.49, 0, -330883.92, 134154.83)" xlink:href="#l"/></defs><g clip-path="url(#a)"><g clip-path="url(#b)"><g clip-path="url(#c)"><rect x="0.84" y="104.2" width="64.39" height="63.77" transform="translate(-54.96 27.15) rotate(-25.29)" fill="url(#d)"/></g></g></g><g clip-path="url(#a)"><g clip-path="url(#f)"><g clip-path="url(#g)"><rect x="-38.55" y="95.93" width="116.77" height="115.79" transform="translate(-63.81 23.22) rotate(-25.29)" fill="url(#h)"/></g></g></g><g clip-path="url(#a)"><g clip-path="url(#j)"><g clip-path="url(#k)"><rect x="-45.07" y="146.38" width="93.65" height="93.62" transform="translate(-120.4 43.51) rotate(-38.7)" fill="url(#l)"/></g></g></g><g clip-path="url(#a)"><g clip-path="url(#n)"><g clip-path="url(#o)"><rect x="15.45" y="100.43" width="110.15" height="110.1" transform="translate(-81.73 78.23) rotate(-38.7)" fill="url(#p)"/></g></g></g><g clip-path="url(#q)"><path d="M104,107.38a14.73,14.73,0,0,1-6.14-1.14,8.67,8.67,0,0,1-3.75-3.13,8.28,8.28,0,0,1-1.27-4.56h6.44a3,3,0,0,0,.52,1.7,3.28,3.28,0,0,0,1.55,1.19,6.93,6.93,0,0,0,2.65.43,7.24,7.24,0,0,0,2.38-.35,3.4,3.4,0,0,0,1.5-1,2.4,2.4,0,0,0,.52-1.53,2,2,0,0,0-1-1.77,7.29,7.29,0,0,0-3.25-.81l-1.68-.14a10.69,10.69,0,0,1-6.44-2.54,7.46,7.46,0,0,1-2.4-5.79,7.81,7.81,0,0,1,1.2-4.4,7.59,7.59,0,0,1,3.38-2.79,14.29,14.29,0,0,1,10.6.1,7.91,7.91,0,0,1,3.42,3,8.51,8.51,0,0,1,1.18,4.52H107a2.94,2.94,0,0,0-.43-1.57,2.87,2.87,0,0,0-1.23-1.13,4.32,4.32,0,0,0-2-.41,4.27,4.27,0,0,0-1.81.34,2.45,2.45,0,0,0-1.1.95,2.51,2.51,0,0,0-.38,1.36,2.42,2.42,0,0,0,.68,1.71,3.62,3.62,0,0,0,2.36.86l1.68.14A15.88,15.88,0,0,1,110,91.91a8.85,8.85,0,0,1,3.54,2.77,7.05,7.05,0,0,1,1.29,4.3,7.61,7.61,0,0,1-1.31,4.43,8.41,8.41,0,0,1-3.72,2.93,14.72,14.72,0,0,1-5.81,1" fill="#fff"/><path d="M132.68,106.67l-6.23-26.11h6.87L138,102.19l-1.11-.82h2.89l-1.25.82,3.54-20.7h5.4l-4.9,25.18Zm15.52,0-5.26-25.18h5.69l4.15,20.7-1.26-.82h2.72l-.93.82,4-21.63h6.44l-5.47,26.11Z" fill="#fff"/><path d="M190.11,107.38a14.63,14.63,0,0,1-6.22-1.23,13.14,13.14,0,0,1-4.4-3.26,13.8,13.8,0,0,1-2.61-4.38,13.41,13.41,0,0,1-.86-4.58v-.78a13.61,13.61,0,0,1,.9-4.85,13,13,0,0,1,7.1-7.39,16.78,16.78,0,0,1,12.16,0A13,13,0,0,1,200.59,84a13.54,13.54,0,0,1,3.62,9.16v.78a13.21,13.21,0,0,1-.88,4.58,14.24,14.24,0,0,1-2.63,4.38,13.14,13.14,0,0,1-4.4,3.26,14.55,14.55,0,0,1-6.19,1.23m0-6.22a7.9,7.9,0,0,0,3.08-.57A6.81,6.81,0,0,0,195.51,99,7,7,0,0,0,197,96.56a9.37,9.37,0,0,0,0-6.1,6.79,6.79,0,0,0-1.48-2.39,6.54,6.54,0,0,0-2.33-1.54,8.15,8.15,0,0,0-3-.54,8.24,8.24,0,0,0-3.07.54,6.43,6.43,0,0,0-3.79,3.93,9,9,0,0,0-.5,3.12,8.51,8.51,0,0,0,.5,3A7.09,7.09,0,0,0,184.71,99a6.85,6.85,0,0,0,2.33,1.61,7.85,7.85,0,0,0,3.07.57" fill="#fff"/><path d="M231.74,107.38a14.63,14.63,0,0,1-6.22-1.23,13.14,13.14,0,0,1-4.4-3.26,13.8,13.8,0,0,1-2.61-4.38,13.41,13.41,0,0,1-.86-4.58v-.78a13.61,13.61,0,0,1,.9-4.85,13,13,0,0,1,7.1-7.39,16.78,16.78,0,0,1,12.16,0A13,13,0,0,1,242.22,84a13.54,13.54,0,0,1,3.62,9.16v.78a13.21,13.21,0,0,1-.88,4.58,14.24,14.24,0,0,1-2.63,4.38,13.14,13.14,0,0,1-4.4,3.26,14.55,14.55,0,0,1-6.19,1.23m0-6.22a7.9,7.9,0,0,0,3.08-.57A6.81,6.81,0,0,0,237.14,99a7,7,0,0,0,1.47-2.42,9.37,9.37,0,0,0,0-6.1,6.79,6.79,0,0,0-1.48-2.39,6.54,6.54,0,0,0-2.33-1.54,8.15,8.15,0,0,0-3-.54,8.24,8.24,0,0,0-3.07.54,6.43,6.43,0,0,0-3.79,3.93,9,9,0,0,0-.5,3.12,8.51,8.51,0,0,0,.5,3A7.09,7.09,0,0,0,226.34,99a6.85,6.85,0,0,0,2.33,1.61,7.85,7.85,0,0,0,3.07.57" fill="#fff"/><path d="M259.68,80.34h6.65v26.33h-6.65Zm5.93,19.39V94h4.29a4.38,4.38,0,0,0,2.11-.49,3.44,3.44,0,0,0,1.4-1.38,4.24,4.24,0,0,0,.5-2.1,4.38,4.38,0,0,0-.5-2.15,3.34,3.34,0,0,0-1.4-1.36,4.5,4.5,0,0,0-2.11-.46h-4.29V80.34h4.12a13.84,13.84,0,0,1,5.81,1.13,8.51,8.51,0,0,1,3.77,3.24,9.28,9.28,0,0,1,1.32,5v.57a9.27,9.27,0,0,1-1.32,5,8.59,8.59,0,0,1-3.77,3.25,13.53,13.53,0,0,1-5.81,1.15Z" fill="#fff"/><polygon points="294.26 106.67 302.63 80.56 313.29 80.56 321.95 106.67 315.08 106.67 308.36 85.21 310.25 85.92 305.53 85.92 307.46 85.21 300.92 106.67 294.26 106.67" fill="#ec5655"/><path d="M335.61,80.56h6.44v26.1h-6.44Zm5.72,0h10.8V86h-10.8Zm0,10.12H351.6v5.43H341.33Zm0,10.55h11v5.44h-11Z" fill="#ec5655"/><path d="M367.51,80.34h6.65v26.33h-6.65Zm5,18.31V93.54h6.26a4.21,4.21,0,0,0,2-.47,3.34,3.34,0,0,0,1.34-1.32,4,4,0,0,0,.48-2,4.1,4.1,0,0,0-.48-2,3.34,3.34,0,0,0-1.34-1.32,4.21,4.21,0,0,0-2-.47h-6.26V80.34h5.87a15.28,15.28,0,0,1,5.86,1,8.08,8.08,0,0,1,3.79,3,8.67,8.67,0,0,1,1.33,4.91v.58A8.38,8.38,0,0,1,388,94.74a8,8,0,0,1-3.79,2.93,15.56,15.56,0,0,1-5.84,1Zm10.77,8-7.34-11.09h7.23l7.76,11.09Z" fill="#ec5655"/><path d="M417.22,107.38a14.63,14.63,0,0,1-6.22-1.23,13.14,13.14,0,0,1-4.4-3.26A13.8,13.8,0,0,1,404,98.51a13.41,13.41,0,0,1-.86-4.58v-.78a13.61,13.61,0,0,1,.9-4.85,13,13,0,0,1,7.09-7.39,15.26,15.26,0,0,1,6.1-1.14,15.09,15.09,0,0,1,6.06,1.14A13,13,0,0,1,427.7,84a13.47,13.47,0,0,1,3.61,9.16v.78a13.19,13.19,0,0,1-.87,4.58,14.24,14.24,0,0,1-2.63,4.38,13.14,13.14,0,0,1-4.4,3.26,14.55,14.55,0,0,1-6.19,1.23m0-6.22a7.9,7.9,0,0,0,3.08-.57A6.81,6.81,0,0,0,422.62,99a7,7,0,0,0,1.47-2.42,9.37,9.37,0,0,0,0-6.1,6.79,6.79,0,0,0-1.48-2.39,6.54,6.54,0,0,0-2.33-1.54,8.15,8.15,0,0,0-3-.54,8.24,8.24,0,0,0-3.07.54,6.43,6.43,0,0,0-3.79,3.93,9,9,0,0,0-.5,3.12,8.51,8.51,0,0,0,.5,3A7.09,7.09,0,0,0,411.82,99a6.85,6.85,0,0,0,2.33,1.61,7.85,7.85,0,0,0,3.07.57" fill="#ec5655"/></g><g clip-path="url(#r)"><rect x="51.28" y="15.35" width="33.1" height="30.69" transform="translate(-6.61 31.92) rotate(-25.29)" fill="url(#s)"/></g><g clip-path="url(#t)"><rect x="26.31" y="18.35" width="59.77" height="55.99" transform="translate(-14.41 28.45) rotate(-25.29)" fill="url(#u)"/></g><g clip-path="url(#v)"><rect x="19.04" y="60.47" width="42.4" height="41.22" transform="matrix(0.78, -0.63, 0.63, 0.78, -41.86, 42.96)" fill="url(#w)"/></g><g clip-path="url(#x)"><rect x="75.9" y="23.65" width="50.01" height="48.33" transform="translate(-7.74 73.59) rotate(-38.7)" fill="url(#y)"/></g></svg>